<svg width="25" height="28" viewBox="0 0 25 28" fill="none" xmlns="http://www.w3.org/2000/svg">
<path d="M0.494357 0.428197C0.14741 0.844456 -0.0280417 1.37719 0.00365329 1.91815V25.4184C-0.0262482 25.9591 0.148993 26.4912 0.494357 26.9083L0.574654 26.9886L13.7344 13.8199V13.5077L0.574654 0.3479L0.494357 0.428197Z" fill="url(#paint0_linear_115_637)"/>
<path d="M18.1239 18.2094L13.7344 13.8199V13.5076L18.1239 9.12695L18.2221 9.18048L23.4235 12.1336C24.9135 12.9723 24.9135 14.3552 23.4235 15.2028L18.2221 18.1559L18.1239 18.2094Z" fill="url(#paint1_linear_115_637)"/>
<path d="M18.2219 18.156L13.761 13.6951L0.494141 26.9084C0.79994 27.1598 1.18066 27.3024 1.57638 27.3137C1.9721 27.325 2.36035 27.2044 2.68 26.9708L18.1952 18.156" fill="url(#paint2_linear_115_637)"/>
<path d="M18.2219 9.18056L2.68 0.356814C2.36378 0.113694 1.97295 -0.0120999 1.57428 0.000917832C1.17562 0.0139356 0.793833 0.164957 0.494141 0.428189L13.7342 13.6683L18.2219 9.18056Z" fill="url(#paint3_linear_115_637)"/>
<path opacity="0.1" d="M18.1242 18.0579L2.6804 26.8191C2.37234 27.0487 1.99842 27.1727 1.61424 27.1727C1.23005 27.1727 0.856133 27.0487 0.54807 26.8191L0.467773 26.8994L0.54807 26.9797C0.856133 27.2093 1.23005 27.3333 1.61424 27.3333C1.99842 27.3333 2.37234 27.2093 2.6804 26.9797L18.1956 18.1649L18.1242 18.0579Z" fill="black"/>
<path opacity="0.07" d="M0.494579 26.7655C0.148637 26.3452 -0.0265315 25.8101 0.00387569 25.2666V25.4183C-0.0260258 25.959 0.149215 26.4911 0.494579 26.9082L0.574876 26.8279L0.494579 26.7655Z" fill="black"/>
<path opacity="0.07" d="M23.4236 15.0422L18.124 18.0578L18.2222 18.156L23.4236 15.1671C23.7287 15.033 23.9927 14.8202 24.1887 14.5506C24.3846 14.281 24.5055 13.9642 24.5389 13.6326C24.478 13.9391 24.3451 14.2268 24.1512 14.4719C23.9573 14.717 23.7079 14.9125 23.4236 15.0422Z" fill="black"/>
<path opacity="0.3" d="M2.68047 0.51763L23.4238 12.2856C23.7054 12.4122 23.9531 12.6034 24.1469 12.8436C24.3407 13.0839 24.475 13.3665 24.5391 13.6685C24.5075 13.3363 24.3874 13.0187 24.1912 12.7488C23.995 12.4789 23.73 12.2665 23.4238 12.1339L2.68047 0.357036C1.21728 -0.481621 0.00390625 0.214286 0.00390625 1.91837V2.07004C0.00390625 0.374879 1.21728 -0.329949 2.68047 0.51763Z" fill="white"/>
<defs>
<linearGradient id="paint0_linear_115_637" x1="12.5746" y1="1.66834" x2="-5.26026" y2="19.5032" gradientUnits="userSpaceOnUse">
<stop stop-color="#008EFF"/>
<stop offset="0.01" stop-color="#008FFF"/>
<stop offset="0.26" stop-color="#00ACFF"/>
<stop offset="0.51" stop-color="#00C0FF"/>
<stop offset="0.76" stop-color="#00CDFF"/>
<stop offset="1" stop-color="#00D1FF"/>
</linearGradient>
<linearGradient id="paint1_linear_115_637" x1="23.602" y1="13.6682" x2="-2.11089" y2="13.6682" gradientUnits="userSpaceOnUse">
<stop stop-color="#FFD800"/>
<stop offset="1" stop-color="#FF8A00"/>
</linearGradient>
<linearGradient id="paint2_linear_115_637" x1="15.7862" y1="16.104" x2="-8.39205" y2="40.2823" gradientUnits="userSpaceOnUse">
<stop stop-color="#FF3A44"/>
<stop offset="1" stop-color="#B11162"/>
</linearGradient>
<linearGradient id="paint3_linear_115_637" x1="-2.84264" y1="-7.3963" x2="7.96176" y2="3.39918" gradientUnits="userSpaceOnUse">
<stop stop-color="#328E71"/>
<stop offset="0.07" stop-color="#2D9571"/>
<stop offset="0.48" stop-color="#15BD74"/>
<stop offset="0.8" stop-color="#06D575"/>
<stop offset="1" stop-color="#00DE76"/>
</linearGradient>
</defs>
</svg>
